<svg width="220" height="220" viewBox="0 0 220 220" fill="none" xmlns="http://www.w3.org/2000/svg">
<path fill-rule="evenodd" clip-rule="evenodd" d="M215.217 110C215.217 168.11 168.11 215.217 110 215.217C51.89 215.217 4.78259 168.11 4.78259 110C4.78259 51.89 51.89 4.78259 110 4.78259C168.11 4.78259 215.217 51.89 215.217 110ZM110 205.652C162.827 205.652 205.652 162.827 205.652 110C205.652 57.1727 162.827 14.3478 110 14.3478C57.1727 14.3478 14.3478 57.1727 14.3478 110C14.3478 162.827 57.1727 205.652 110 205.652Z" fill="#00415D" fill-opacity="0.69"/>
<path fill-rule="evenodd" clip-rule="evenodd" d="M110 0V19.1304C160.186 19.1304 200.87 59.8141 200.87 110C200.87 133.688 191.806 155.259 176.957 171.434L190.826 184.614C208.936 165.007 220 138.795 220 110C220 49.2487 170.751 0 110 0Z" fill="#00B2FF"/>
</svg>
