<svg width="1440" height="1364" viewBox="0 0 1440 1364" fill="none" xmlns="http://www.w3.org/2000/svg">
<rect x="1327.06" width="28.2353" height="340"/>
<rect x="1298.82" y="14.3373" width="28.2353" height="325.663"/>
<rect x="1270.59" y="119.819" width="28.2353" height="220.181"/>
<rect x="1242.35" y="196.627" width="28.2353" height="143.373"/>
<rect x="1214.12" y="250.904" width="28.2353" height="89.0964"/>
<rect x="1185.88" y="264.217" width="28.2353" height="75.7831"/>
<rect x="1157.65" y="250.904" width="28.2353" height="89.0964"/>
<rect x="1129.41" y="147.47" width="28.2353" height="192.53"/>
<rect x="1072.94" y="237.59" width="28.2353" height="102.41"/>
<rect x="1044.71" y="106.506" width="28.2353" height="233.494"/>
<rect x="1016.47" y="223.253" width="28.2353" height="116.747"/>
<rect x="988.235" y="288.795" width="28.2353" height="51.2048"/>
<rect x="960" y="288.795" width="28.2353" height="51.2048"/>
<rect x="931.765" y="250.904" width="28.2353" height="89.0964"/>
<rect x="903.529" y="134.157" width="28.2353" height="205.843"/>
<rect x="875.294" y="138.253" width="28.2353" height="201.747"/>
<rect x="847.059" y="201.747" width="28.2353" height="138.253"/>
<rect x="818.823" y="279.578" width="28.2353" height="60.4217"/>
<rect x="790.588" y="291.867" width="28.2353" height="48.1325"/>
<rect x="762.353" y="222.229" width="28.2353" height="117.771"/>
<rect x="734.118" y="279.578" width="28.2353" height="60.4217"/>
<rect x="705.882" y="201.747" width="28.2353" height="138.253"/>
<rect x="677.647" y="302.108" width="28.2353" height="37.8916"/>
<rect x="649.412" y="311.325" width="28.2353" height="28.6747"/>
<rect x="621.177" y="227.349" width="28.2353" height="112.651"/>
<rect x="592.941" y="243.735" width="28.2353" height="96.2651"/>
<rect x="564.706" y="306.205" width="28.2353" height="33.7952"/>
<rect x="536.471" y="326.687" width="28.2353" height="13.3133"/>
<rect x="508.235" y="302.108" width="28.2353" height="37.8916"/>
<rect x="480" y="326.687" width="28.2353" height="13.3133"/>
<rect x="451.765" y="317.47" width="28.2353" height="22.5301"/>
<rect x="423.529" y="326.687" width="28.2353" height="13.3133"/>
<rect x="395.294" y="328.735" width="28.2353" height="11.2651"/>
<rect x="367.059" y="324.639" width="28.2353" height="15.3614"/>
<rect x="338.823" y="332.831" width="28.2353" height="7.16867"/>
<rect x="310.588" y="315.422" width="28.2353" height="24.5783"/>
<rect x="282.353" y="328.735" width="28.2353" height="11.2651"/>
<rect x="254.118" y="319.518" width="28.2353" height="20.4819"/>
<rect x="225.882" y="323.615" width="28.2353" height="16.3855"/>
<rect x="197.647" y="326.687" width="28.2353" height="13.3133"/>
<rect x="169.412" y="326.687" width="28.2353" height="13.3133"/>
<rect x="141.177" y="326.687" width="28.2353" height="13.3133"/>
<rect x="112.941" y="329.759" width="28.2353" height="10.241"/>
<rect x="84.7058" y="326.687" width="28.2353" height="13.3133"/>
<rect x="56.4707" y="326.687" width="28.2353" height="13.3133"/>
<rect x="28.2354" y="329.759" width="28.2353" height="10.241"/>
<rect y="329.759" width="28.2353" height="10.241"/>
<rect x="1101.18" y="80.9036" width="28.2353" height="259.096"/>
<rect x="1355.29" y="14.3373" width="28.2353" height="325.663"/>
<rect x="1383.53" y="145.422" width="28.2353" height="194.578"/>
<rect x="1411.76" y="191.506" width="28.2353" height="148.494"/>
<rect y="340" width="1440" height="1024"/>
</svg>
